<?xml version="1.0" standalone="no"?>
<!DOCTYPE svg PUBLIC "-//W3C//DTD SVG 20010904//EN"
 "http://www.w3.org/TR/2001/REC-SVG-20010904/DTD/svg10.dtd">
<svg version="1.0" xmlns="http://www.w3.org/2000/svg"
 width="1024.000000pt" height="313.000000pt" viewBox="0 0 1024.000000 313.000000"
 preserveAspectRatio="xMidYMid meet">

<g transform="translate(0.000000,313.000000) scale(0.100000,-0.100000)"
fill="#0000ff" stroke="none">
<path d="M1140 3111 c-124 -27 -342 -116 -409 -167 -90 -68 -121 -101 -240
-257 -97 -128 -115 -157 -132 -217 -24 -88 -24 -98 1 -69 l20 24 -6 -37 c-6
-34 -4 -38 15 -38 24 0 25 -7 11 -46 -10 -25 -9 -26 6 -13 13 11 18 11 21 2 7
-20 58 -15 77 6 10 11 27 22 39 25 12 4 45 34 72 68 92 112 218 239 276 279
78 52 142 76 257 95 145 24 255 13 349 -34 139 -68 210 -143 291 -307 68 -135
81 -180 98 -320 43 -369 -21 -688 -193 -947 -58 -89 -140 -160 -238 -209 -104
-51 -215 -66 -382 -50 -277 27 -504 140 -669 333 -82 96 -177 291 -215 442
-30 120 -39 510 -14 656 36 217 95 373 188 495 48 64 78 90 144 124 89 45 84
121 -8 121 -28 0 -47 -15 -138 -107 -112 -114 -163 -190 -219 -324 -78 -188
-117 -386 -133 -678 -17 -298 -4 -450 57 -650 45 -150 84 -213 213 -341 175
-174 277 -247 503 -361 82 -42 202 -68 370 -81 174 -14 299 0 463 52 160 51
238 97 369 218 130 120 172 175 241 312 113 226 175 430 194 640 6 63 13 144
17 180 7 75 -28 283 -72 422 -30 93 -119 263 -194 368 -152 214 -210 254 -519
357 -132 44 -140 45 -281 49 -115 3 -162 0 -230 -15z"/>
<path d="M4800 3095 c11 -13 5 -15 -46 -15 l-59 -1 35 -20 35 -20 -40 5 c-90
12 -86 -35 5 -53 41 -8 71 -21 93 -41 l31 -28 8 -198 c5 -110 7 -266 6 -349
l-3 -150 -60 -21 c-33 -12 -112 -34 -175 -49 -137 -33 -143 -36 -198 -84 -39
-34 -44 -42 -45 -87 l-2 -49 53 -3 c42 -2 91 9 238 54 101 32 187 55 190 51 3
-3 1 -86 -6 -184 -15 -210 -18 -678 -6 -848 l8 -119 59 -61 c33 -34 59 -66 59
-72 0 -22 78 -68 179 -106 104 -38 107 -38 138 -22 39 21 82 82 113 158 20 52
21 64 12 115 -6 31 -14 154 -17 272 -5 203 -10 284 -35 575 -12 146 -13 355
-2 355 10 0 474 59 752 95 107 14 230 30 272 36 42 5 94 16 115 23 88 32 250
116 274 143 59 62 9 139 -105 164 -136 29 -689 -56 -1188 -183 -92 -23 -170
-39 -174 -35 -4 4 -18 89 -31 189 -31 248 -68 437 -91 468 -44 59 -196 110
-325 110 -70 0 -78 -2 -67 -15z"/>
<path d="M3913 2753 c-39 -4 -43 -7 -43 -31 0 -17 -13 -39 -36 -63 -33 -34
-36 -42 -37 -100 -2 -57 1 -69 30 -109 20 -28 38 -72 48 -115 37 -160 45 -173
114 -182 23 -3 41 -9 41 -12 0 -4 31 -8 68 -9 85 -3 158 29 197 86 36 53 33
100 -12 175 -92 154 -120 196 -180 269 -49 59 -73 80 -101 88 -20 5 -39 9 -42
8 -3 -1 -24 -3 -47 -5z"/>
<path d="M9445 1998 c-61 -32 -183 -126 -251 -193 -57 -56 -64 -68 -93 -158
-44 -138 -61 -250 -61 -402 0 -138 10 -219 34 -266 8 -16 17 -43 21 -60 8 -36
30 -57 165 -158 157 -117 208 -134 350 -112 58 9 98 24 177 67 l103 55 23 -23
c12 -13 29 -49 36 -80 14 -55 31 -78 31 -40 0 14 2 15 10 2 5 -8 10 -24 10
-35 1 -33 16 -51 33 -37 12 10 17 7 26 -17 10 -23 21 -30 52 -35 57 -9 115 8
123 37 14 54 5 350 -18 547 -27 224 -54 347 -117 515 -22 61 -42 115 -43 122
-1 7 -5 16 -9 19 -13 14 -7 23 11 17 9 -3 -3 15 -28 41 -25 26 -56 50 -70 53
-13 3 -90 35 -170 70 -146 65 -233 93 -280 93 -14 -1 -43 -10 -65 -22z m293
-78 c67 -32 122 -62 122 -65 0 -3 -23 6 -51 21 -28 14 -57 23 -65 20 -14 -5
-139 38 -157 54 -5 4 4 6 20 4 23 -3 21 -1 -9 9 -50 17 -61 31 -18 23 19 -3
90 -33 158 -66z m-52 -235 l155 -77 -6 -177 c-8 -243 -7 -236 -63 -266 -36
-18 -42 -24 -24 -25 23 0 32 -30 9 -30 -8 0 -22 -10 -33 -21 -10 -12 -35 -32
-54 -45 -19 -13 -45 -31 -58 -40 -20 -15 -30 -16 -93 -4 -73 14 -95 9 -63 -15
18 -14 18 -14 -6 -15 -41 0 -85 34 -111 86 -23 47 -24 57 -22 234 1 149 5 200
22 262 20 78 61 169 90 202 28 31 87 15 257 -69z m-536 16 c-6 -12 -15 -21
-20 -21 -5 0 -1 13 8 30 19 32 30 24 12 -9z m707 -453 c-2 -13 -4 -5 -4 17 -1
22 1 32 4 23 2 -10 2 -28 0 -40z"/>
<path d="M9690 1920 c19 -11 40 -19 45 -19 6 0 -6 8 -25 19 -19 11 -39 19 -45
19 -5 0 6 -8 25 -19z"/>
<path d="M4083 1978 c-20 -10 -23 -19 -23 -77 -1 -120 -19 -313 -45 -461 -30
-171 -41 -218 -71 -285 -40 -92 -39 -102 9 -206 24 -52 49 -114 56 -139 24
-85 129 -215 194 -239 44 -17 137 -13 177 7 39 19 54 45 68 117 5 28 31 144
57 260 46 200 49 217 49 360 l1 150 -42 88 c-24 49 -60 114 -81 145 -22 31
-59 88 -83 126 -24 38 -65 91 -91 118 -45 46 -49 48 -100 47 -29 0 -63 -5 -75
-11z"/>
<path d="M3199 1975 c-4 -3 -29 -11 -55 -18 -47 -11 -50 -14 -63 -59 -8 -26
-31 -69 -52 -95 -21 -26 -84 -114 -141 -195 -57 -81 -106 -147 -110 -148 -5 0
-8 29 -8 63 0 132 -13 366 -22 379 -6 10 -13 7 -28 -12 -18 -23 -20 -24 -20
-5 0 44 -46 59 -79 28 -21 -20 -75 -217 -118 -423 -23 -113 -27 -160 -27 -290
0 -172 15 -248 61 -309 61 -80 207 -95 281 -28 27 25 28 52 3 114 -36 91 -36
147 -2 254 35 108 63 151 235 360 101 121 110 130 118 109 5 -13 8 -114 7
-224 -2 -229 12 -359 45 -431 20 -43 88 -145 166 -247 11 -14 44 -40 73 -56
30 -17 61 -42 71 -57 21 -32 72 -55 129 -57 51 -3 101 32 148 102 28 41 30 51
27 110 -4 57 -10 74 -49 135 -76 118 -102 197 -124 390 -31 259 -73 365 -194
486 -60 59 -89 81 -136 99 -65 24 -126 36 -136 25z"/>
<path d="M6165 1969 c-83 -12 -172 -44 -241 -85 -70 -42 -186 -153 -179 -172
6 -17 -36 -82 -54 -82 -11 0 -11 -3 -1 -15 13 -16 7 -45 -9 -45 -5 0 -7 10 -5
23 6 30 -21 -28 -30 -65 -5 -23 -4 -27 11 -21 14 5 15 3 6 -7 -6 -7 -9 -19 -6
-26 3 -9 0 -12 -9 -9 -12 5 -18 -8 -27 -55 -13 -67 -8 -88 16 -68 14 11 15 9
9 -17 -24 -116 -34 -271 -16 -260 6 3 10 -5 10 -19 0 -13 -5 -26 -12 -28 -8
-3 -3 -22 17 -62 28 -55 79 -109 144 -151 17 -11 65 -45 108 -77 62 -44 91
-59 141 -68 123 -25 236 26 336 150 31 39 60 70 65 70 4 0 13 -34 19 -76 6
-48 18 -87 34 -110 65 -96 278 -115 334 -29 16 25 16 31 -5 138 -12 62 -29
200 -37 307 -27 358 -35 399 -101 513 -34 58 -44 85 -40 105 8 39 -13 80 -71
139 -92 93 -231 127 -407 102z m24 -435 c6 -88 12 -220 15 -296 4 -134 4 -137
-20 -159 -30 -28 -32 -53 -4 -44 24 7 26 -7 5 -25 -13 -10 -19 -10 -34 4 -18
16 -21 16 -51 1 -18 -9 -55 -19 -84 -22 -42 -4 -57 -1 -86 19 -43 29 -57 69
-66 185 -17 225 77 422 239 503 76 38 72 46 86 -166z m-204 -574 c3 -5 1 -10
-4 -10 -6 0 -11 5 -11 10 0 6 2 10 4 10 3 0 8 -4 11 -10z m55 6 c0 -3 -4 -8
-10 -11 -5 -3 -10 -1 -10 4 0 6 5 11 10 11 6 0 10 -2 10 -4z"/>
<path d="M7586 1949 c-92 -48 -178 -148 -290 -341 -38 -65 -52 -75 -60 -42
-19 75 -112 290 -138 320 -35 39 -52 44 -42 12 3 -13 3 -20 -1 -16 -5 4 -14 3
-22 -3 -7 -7 -28 -19 -46 -28 -32 -16 -32 -16 -40 -116 -6 -85 -18 -577 -17
-714 1 -56 23 -84 59 -76 37 8 86 -26 120 -82 50 -82 66 -97 155 -142 135 -69
216 -59 216 28 0 65 -69 372 -112 499 -47 140 -48 128 11 326 33 109 78 175
144 211 43 23 61 16 90 -32 36 -62 47 -156 47 -409 0 -236 -1 -243 -25 -298
-22 -50 -23 -59 -11 -79 7 -12 16 -34 20 -49 5 -24 13 -28 54 -34 45 -6 50
-10 102 -82 72 -99 126 -127 247 -127 73 0 84 3 108 25 50 47 56 70 58 228 1
137 -16 326 -44 469 -7 36 -7 64 1 94 20 73 157 195 180 159 21 -33 71 -467
95 -818 19 -270 15 -511 -9 -587 -17 -54 -22 -160 -7 -150 5 3 26 -14 47 -38
36 -42 38 -43 56 -25 10 10 18 24 18 32 0 8 5 18 10 21 6 3 10 -3 10 -14 0
-11 5 -23 10 -26 6 -3 10 4 10 18 0 33 19 86 43 120 16 23 21 26 34 15 17 -14
62 -12 78 3 5 5 22 9 37 9 60 0 150 78 167 144 16 66 15 331 -3 521 -49 519
-92 738 -172 866 -31 50 -119 135 -171 166 -74 43 -127 54 -202 42 -133 -21
-216 -79 -353 -251 -39 -49 -74 -88 -78 -88 -4 0 -24 37 -45 83 -50 106 -94
177 -109 177 -7 0 -18 11 -24 25 -15 33 -89 85 -121 85 -14 -1 -53 -15 -85
-31z"/>
<path d="M5610 1290 c0 -11 2 -20 4 -20 2 0 6 9 9 20 3 11 1 20 -4 20 -5 0 -9
-9 -9 -20z"/>
</g>
</svg>
