<?xml version="1.0" standalone="no"?>
<!DOCTYPE svg PUBLIC "-//W3C//DTD SVG 20010904//EN"
 "http://www.w3.org/TR/2001/REC-SVG-20010904/DTD/svg10.dtd">
<svg version="1.0" xmlns="http://www.w3.org/2000/svg"
 width="61.000000pt" height="117.000000pt" viewBox="0 0 61.000000 117.000000"
 preserveAspectRatio="xMidYMid meet">

<g transform="translate(0.000000,117.000000) scale(0.100000,-0.100000)"
fill="#0000ff" stroke="none">
<path d="M115 670 c0 -22 3 -40 8 -40 4 0 7 18 7 40 0 22 -3 40 -7 40 -5 0 -8
-18 -8 -40z"/>
<path d="M500 660 c0 -22 2 -40 4 -40 2 0 6 18 8 40 2 22 0 40 -4 40 -5 0 -8
-18 -8 -40z"/>
<path d="M190 600 c0 -11 14 -11 50 0 22 7 21 8 -12 9 -21 1 -38 -3 -38 -9z"/>
<path d="M72 337 c-23 -23 -42 -46 -42 -50 0 -9 82 3 94 14 6 6 5 9 -3 9 -9 0
-12 11 -9 35 2 19 4 35 3 35 0 0 -20 -19 -43 -43z"/>
<path d="M500 326 c0 -30 5 -38 32 -52 l32 -17 -60 -18 c-140 -45 -179 -49
-294 -29 -175 31 -190 31 -190 8 0 -10 5 -28 10 -39 8 -15 7 -19 -5 -19 -12 0
-15 -13 -15 -60 l0 -60 55 0 55 0 0 55 c0 50 -2 55 -22 56 -19 1 -18 2 7 11
43 14 416 14 441 0 17 -10 17 -11 -8 -12 -27 0 -28 -2 -28 -56 l0 -55 38 3
c37 3 37 3 40 51 2 27 -1 54 -5 60 -5 7 -9 41 -8 77 1 63 0 66 -37 99 l-38 33
0 -36z"/>
</g>
</svg>
